<svg width="529" height="266" viewBox="0 0 529 266" fill="none" xmlns="http://www.w3.org/2000/svg">
<path d="M3.26074 4.72705V17.5239H1.56445V4.72705H3.26074ZM11.1445 4.72705L5.58984 11.7671H2.58398L2.32031 10.3608H4.5791L9.04395 4.72705H11.1445ZM9.43945 17.5239L4.63184 11.5474L5.58105 10.062L11.5137 17.5239H9.43945ZM12.1289 12.8745V12.6724C12.1289 11.9868 12.2285 11.3511 12.4277 10.7651C12.627 10.1733 12.9141 9.66064 13.2891 9.22705C13.6641 8.7876 14.1182 8.44775 14.6514 8.20752C15.1846 7.96143 15.7822 7.83838 16.4443 7.83838C17.1123 7.83838 17.7129 7.96143 18.2461 8.20752C18.7852 8.44775 19.2422 8.7876 19.6172 9.22705C19.998 9.66064 20.2881 10.1733 20.4873 10.7651C20.6865 11.3511 20.7861 11.9868 20.7861 12.6724V12.8745C20.7861 13.5601 20.6865 14.1958 20.4873 14.7817C20.2881 15.3677 19.998 15.8804 19.6172 16.3198C19.2422 16.7534 18.7881 17.0933 18.2549 17.3394C17.7275 17.5796 17.1299 17.6997 16.4619 17.6997C15.7939 17.6997 15.1934 17.5796 14.6602 17.3394C14.127 17.0933 13.6699 16.7534 13.2891 16.3198C12.9141 15.8804 12.627 15.3677 12.4277 14.7817C12.2285 14.1958 12.1289 13.5601 12.1289 12.8745ZM13.7549 12.6724V12.8745C13.7549 13.3491 13.8105 13.7974 13.9219 14.2192C14.0332 14.6353 14.2002 15.0044 14.4229 15.3267C14.6514 15.6489 14.9355 15.9038 15.2754 16.0913C15.6152 16.2729 16.0107 16.3638 16.4619 16.3638C16.9072 16.3638 17.2969 16.2729 17.6309 16.0913C17.9707 15.9038 18.252 15.6489 18.4746 15.3267C18.6973 15.0044 18.8643 14.6353 18.9756 14.2192C19.0928 13.7974 19.1514 13.3491 19.1514 12.8745V12.6724C19.1514 12.2036 19.0928 11.7612 18.9756 11.3452C18.8643 10.9233 18.6943 10.5513 18.4658 10.229C18.2432 9.90088 17.9619 9.64307 17.6221 9.45557C17.2881 9.26807 16.8955 9.17432 16.4443 9.17432C15.999 9.17432 15.6064 9.26807 15.2666 9.45557C14.9326 9.64307 14.6514 9.90088 14.4229 10.229C14.2002 10.5513 14.0332 10.9233 13.9219 11.3452C13.8105 11.7612 13.7549 12.2036 13.7549 12.6724ZM26.6309 16.3638C27.0176 16.3638 27.375 16.2847 27.7031 16.1265C28.0312 15.9683 28.3008 15.7515 28.5117 15.4761C28.7227 15.1948 28.8428 14.8755 28.8721 14.5181H30.4189C30.3896 15.0806 30.1992 15.605 29.8477 16.0913C29.502 16.5718 29.0479 16.9614 28.4854 17.2603C27.9229 17.5532 27.3047 17.6997 26.6309 17.6997C25.916 17.6997 25.292 17.5737 24.7588 17.3218C24.2314 17.0698 23.792 16.7241 23.4404 16.2847C23.0947 15.8452 22.834 15.3413 22.6582 14.7729C22.4883 14.1987 22.4033 13.5923 22.4033 12.9536V12.5845C22.4033 11.9458 22.4883 11.3423 22.6582 10.7739C22.834 10.1997 23.0947 9.69287 23.4404 9.25342C23.792 8.81396 24.2314 8.46826 24.7588 8.21631C25.292 7.96436 25.916 7.83838 26.6309 7.83838C27.375 7.83838 28.0254 7.99072 28.582 8.29541C29.1387 8.59424 29.5752 9.00439 29.8916 9.52588C30.2139 10.0415 30.3896 10.6274 30.4189 11.2837H28.8721C28.8428 10.8911 28.7314 10.5366 28.5381 10.2202C28.3506 9.90381 28.0928 9.65186 27.7646 9.46436C27.4424 9.271 27.0645 9.17432 26.6309 9.17432C26.1328 9.17432 25.7139 9.27393 25.374 9.47314C25.04 9.6665 24.7734 9.93018 24.5742 10.2642C24.3809 10.5923 24.2402 10.9585 24.1523 11.3628C24.0703 11.7612 24.0293 12.1685 24.0293 12.5845V12.9536C24.0293 13.3696 24.0703 13.7798 24.1523 14.1841C24.2344 14.5884 24.3721 14.9546 24.5654 15.2827C24.7646 15.6108 25.0312 15.8745 25.3652 16.0737C25.7051 16.2671 26.127 16.3638 26.6309 16.3638ZM37.7139 15.3618L40.9482 8.01416H42.5127L38.2764 17.5239H37.1514L32.9326 8.01416H34.4971L37.7139 15.3618ZM34.0225 8.01416V17.5239H32.3965V8.01416H34.0225ZM41.3525 17.5239V8.01416H42.9873V17.5239H41.3525ZM49.5527 17.6997C48.8906 17.6997 48.29 17.5884 47.751 17.3657C47.2178 17.1372 46.7578 16.8179 46.3711 16.4077C45.9902 15.9976 45.6973 15.5112 45.4922 14.9487C45.2871 14.3862 45.1846 13.771 45.1846 13.103V12.7339C45.1846 11.9604 45.2988 11.272 45.5273 10.6685C45.7559 10.0591 46.0664 9.54346 46.459 9.12158C46.8516 8.69971 47.2969 8.38037 47.7949 8.16357C48.293 7.94678 48.8086 7.83838 49.3418 7.83838C50.0215 7.83838 50.6074 7.95557 51.0996 8.18994C51.5977 8.42432 52.0049 8.75244 52.3213 9.17432C52.6377 9.59033 52.8721 10.0825 53.0244 10.6509C53.1768 11.2134 53.2529 11.8286 53.2529 12.4966V13.2261H46.1514V11.8989H51.627V11.7759C51.6035 11.354 51.5156 10.9438 51.3633 10.5454C51.2168 10.147 50.9824 9.81885 50.6602 9.56104C50.3379 9.30322 49.8984 9.17432 49.3418 9.17432C48.9727 9.17432 48.6328 9.25342 48.3223 9.41162C48.0117 9.56396 47.7451 9.79248 47.5225 10.0972C47.2998 10.4019 47.127 10.7739 47.0039 11.2134C46.8809 11.6528 46.8193 12.1597 46.8193 12.7339V13.103C46.8193 13.5542 46.8809 13.979 47.0039 14.3774C47.1328 14.77 47.3174 15.1157 47.5576 15.4146C47.8037 15.7134 48.0996 15.9478 48.4453 16.1177C48.7969 16.2876 49.1953 16.3726 49.6406 16.3726C50.2148 16.3726 50.7012 16.2554 51.0996 16.021C51.498 15.7866 51.8467 15.4731 52.1455 15.0806L53.1299 15.8628C52.9248 16.1733 52.6641 16.4692 52.3477 16.7505C52.0312 17.0317 51.6416 17.2603 51.1787 17.436C50.7217 17.6118 50.1797 17.6997 49.5527 17.6997ZM58.9219 8.01416V17.5239H57.2871V8.01416H58.9219ZM62.1123 8.01416V9.33252H54.1582V8.01416H62.1123ZM62.9121 12.8745V12.6724C62.9121 11.9868 63.0117 11.3511 63.2109 10.7651C63.4102 10.1733 63.6973 9.66064 64.0723 9.22705C64.4473 8.7876 64.9014 8.44775 65.4346 8.20752C65.9678 7.96143 66.5654 7.83838 67.2275 7.83838C67.8955 7.83838 68.4961 7.96143 69.0293 8.20752C69.5684 8.44775 70.0254 8.7876 70.4004 9.22705C70.7812 9.66064 71.0713 10.1733 71.2705 10.7651C71.4697 11.3511 71.5693 11.9868 71.5693 12.6724V12.8745C71.5693 13.5601 71.4697 14.1958 71.2705 14.7817C71.0713 15.3677 70.7812 15.8804 70.4004 16.3198C70.0254 16.7534 69.5713 17.0933 69.0381 17.3394C68.5107 17.5796 67.9131 17.6997 67.2451 17.6997C66.5771 17.6997 65.9766 17.5796 65.4434 17.3394C64.9102 17.0933 64.4531 16.7534 64.0723 16.3198C63.6973 15.8804 63.4102 15.3677 63.2109 14.7817C63.0117 14.1958 62.9121 13.5601 62.9121 12.8745ZM64.5381 12.6724V12.8745C64.5381 13.3491 64.5938 13.7974 64.7051 14.2192C64.8164 14.6353 64.9834 15.0044 65.2061 15.3267C65.4346 15.6489 65.7188 15.9038 66.0586 16.0913C66.3984 16.2729 66.7939 16.3638 67.2451 16.3638C67.6904 16.3638 68.0801 16.2729 68.4141 16.0913C68.7539 15.9038 69.0352 15.6489 69.2578 15.3267C69.4805 15.0044 69.6475 14.6353 69.7588 14.2192C69.876 13.7974 69.9346 13.3491 69.9346 12.8745V12.6724C69.9346 12.2036 69.876 11.7612 69.7588 11.3452C69.6475 10.9233 69.4775 10.5513 69.249 10.229C69.0264 9.90088 68.7451 9.64307 68.4053 9.45557C68.0713 9.26807 67.6787 9.17432 67.2275 9.17432C66.7822 9.17432 66.3896 9.26807 66.0498 9.45557C65.7158 9.64307 65.4346 9.90088 65.2061 10.229C64.9834 10.5513 64.8164 10.9233 64.7051 11.3452C64.5938 11.7612 64.5381 12.2036 64.5381 12.6724ZM79.8223 8.01416V9.35889H75.2256V8.01416H79.8223ZM81.2549 8.01416V17.5239H79.6289V8.01416H81.2549ZM74.8301 8.01416H76.4648L76.2188 12.6021C76.1777 13.311 76.1104 13.938 76.0166 14.4829C75.9287 15.022 75.8057 15.4849 75.6475 15.8716C75.4951 16.2583 75.3018 16.5747 75.0674 16.8208C74.8389 17.061 74.5635 17.2397 74.2412 17.3569C73.9189 17.4683 73.5469 17.5239 73.125 17.5239H72.6152V16.0913L72.9668 16.0649C73.2188 16.0474 73.4326 15.9888 73.6084 15.8892C73.79 15.7896 73.9424 15.6431 74.0654 15.4497C74.1885 15.2505 74.2881 14.9956 74.3643 14.6851C74.4463 14.3745 74.5078 14.0054 74.5488 13.5776C74.5957 13.1499 74.6309 12.6519 74.6543 12.0835L74.8301 8.01416ZM83.4434 12.8745V12.6724C83.4434 11.9868 83.543 11.3511 83.7422 10.7651C83.9414 10.1733 84.2285 9.66064 84.6035 9.22705C84.9785 8.7876 85.4326 8.44775 85.9658 8.20752C86.499 7.96143 87.0967 7.83838 87.7588 7.83838C88.4268 7.83838 89.0273 7.96143 89.5605 8.20752C90.0996 8.44775 90.5566 8.7876 90.9316 9.22705C91.3125 9.66064 91.6025 10.1733 91.8018 10.7651C92.001 11.3511 92.1006 11.9868 92.1006 12.6724V12.8745C92.1006 13.5601 92.001 14.1958 91.8018 14.7817C91.6025 15.3677 91.3125 15.8804 90.9316 16.3198C90.5566 16.7534 90.1025 17.0933 89.5693 17.3394C89.042 17.5796 88.4443 17.6997 87.7764 17.6997C87.1084 17.6997 86.5078 17.5796 85.9746 17.3394C85.4414 17.0933 84.9844 16.7534 84.6035 16.3198C84.2285 15.8804 83.9414 15.3677 83.7422 14.7817C83.543 14.1958 83.4434 13.5601 83.4434 12.8745ZM85.0693 12.6724V12.8745C85.0693 13.3491 85.125 13.7974 85.2363 14.2192C85.3477 14.6353 85.5146 15.0044 85.7373 15.3267C85.9658 15.6489 86.25 15.9038 86.5898 16.0913C86.9297 16.2729 87.3252 16.3638 87.7764 16.3638C88.2217 16.3638 88.6113 16.2729 88.9453 16.0913C89.2852 15.9038 89.5664 15.6489 89.7891 15.3267C90.0117 15.0044 90.1787 14.6353 90.29 14.2192C90.4072 13.7974 90.4658 13.3491 90.4658 12.8745V12.6724C90.4658 12.2036 90.4072 11.7612 90.29 11.3452C90.1787 10.9233 90.0088 10.5513 89.7803 10.229C89.5576 9.90088 89.2764 9.64307 88.9365 9.45557C88.6025 9.26807 88.21 9.17432 87.7588 9.17432C87.3135 9.17432 86.9209 9.26807 86.5811 9.45557C86.2471 9.64307 85.9658 9.90088 85.7373 10.229C85.5146 10.5513 85.3477 10.9233 85.2363 11.3452C85.125 11.7612 85.0693 12.2036 85.0693 12.6724ZM100.283 8.01416V9.35889H95.8887V17.5239H94.2627V8.01416H100.283ZM103.465 8.01416V17.5239H101.83V8.01416H103.465ZM101.707 5.4917C101.707 5.22803 101.786 5.00537 101.944 4.82373C102.108 4.64209 102.349 4.55127 102.665 4.55127C102.976 4.55127 103.213 4.64209 103.377 4.82373C103.547 5.00537 103.632 5.22803 103.632 5.4917C103.632 5.74365 103.547 5.96045 103.377 6.14209C103.213 6.31787 102.976 6.40576 102.665 6.40576C102.349 6.40576 102.108 6.31787 101.944 6.14209C101.786 5.96045 101.707 5.74365 101.707 5.4917ZM113.247 8.01416V17.5239H111.621V8.01416H113.247ZM112.693 12.3823V13.7183C112.365 13.8413 112.031 13.9526 111.691 14.0522C111.357 14.146 111.003 14.2222 110.628 14.2808C110.259 14.3335 109.857 14.3599 109.424 14.3599C108.674 14.3599 108.023 14.231 107.473 13.9731C106.922 13.7095 106.497 13.314 106.198 12.7866C105.899 12.2534 105.75 11.5825 105.75 10.7739V7.99658H107.376V10.7739C107.376 11.3013 107.455 11.729 107.613 12.0571C107.771 12.3853 108.003 12.6284 108.308 12.7866C108.612 12.939 108.984 13.0151 109.424 13.0151C109.846 13.0151 110.241 12.9888 110.61 12.936C110.985 12.8774 111.343 12.8013 111.683 12.7075C112.028 12.6138 112.365 12.5054 112.693 12.3823ZM122.317 12.1362V13.4546H117.29V12.1362H122.317ZM117.633 8.01416V17.5239H116.007V8.01416H117.633ZM123.636 8.01416V17.5239H122.001V8.01416H123.636ZM131.862 15.8979V11.0024C131.862 10.6274 131.786 10.3022 131.634 10.0269C131.487 9.74561 131.265 9.52881 130.966 9.37646C130.667 9.22412 130.298 9.14795 129.858 9.14795C129.448 9.14795 129.088 9.21826 128.777 9.35889C128.473 9.49951 128.232 9.68408 128.057 9.9126C127.887 10.1411 127.802 10.3872 127.802 10.6509H126.176C126.176 10.311 126.264 9.97412 126.439 9.64014C126.615 9.30615 126.867 9.00439 127.195 8.73486C127.529 8.45947 127.928 8.24268 128.391 8.08447C128.859 7.92041 129.381 7.83838 129.955 7.83838C130.646 7.83838 131.256 7.95557 131.783 8.18994C132.316 8.42432 132.732 8.77881 133.031 9.25342C133.336 9.72217 133.488 10.311 133.488 11.02V15.4497C133.488 15.7661 133.515 16.103 133.567 16.4604C133.626 16.8179 133.711 17.1255 133.822 17.3833V17.5239H132.126C132.044 17.3364 131.979 17.0874 131.933 16.7769C131.886 16.4604 131.862 16.1675 131.862 15.8979ZM132.144 11.7583L132.161 12.9009H130.518C130.055 12.9009 129.642 12.939 129.278 13.0151C128.915 13.0854 128.61 13.1938 128.364 13.3403C128.118 13.4868 127.931 13.6714 127.802 13.894C127.673 14.1108 127.608 14.3657 127.608 14.6587C127.608 14.9575 127.676 15.23 127.811 15.4761C127.945 15.7222 128.147 15.9185 128.417 16.0649C128.692 16.2056 129.029 16.2759 129.428 16.2759C129.926 16.2759 130.365 16.1704 130.746 15.9595C131.127 15.7485 131.429 15.4907 131.651 15.186C131.88 14.8813 132.003 14.5854 132.021 14.2983L132.715 15.0806C132.674 15.3267 132.562 15.5991 132.381 15.8979C132.199 16.1968 131.956 16.4839 131.651 16.7593C131.353 17.0288 130.995 17.2544 130.579 17.436C130.169 17.6118 129.706 17.6997 129.19 17.6997C128.546 17.6997 127.98 17.5737 127.494 17.3218C127.014 17.0698 126.639 16.7329 126.369 16.311C126.105 15.8833 125.974 15.4058 125.974 14.8784C125.974 14.3687 126.073 13.9204 126.272 13.5337C126.472 13.1411 126.759 12.8159 127.134 12.5581C127.509 12.2944 127.96 12.0952 128.487 11.9604C129.015 11.8257 129.604 11.7583 130.254 11.7583H132.144ZM142.277 8.01416V17.5239H140.651V8.01416H142.277ZM148.518 8.01416L144.009 13.4634H141.732L141.486 12.0396H143.35L146.54 8.01416H148.518ZM146.769 17.5239L143.271 13.2173L144.316 12.0396L148.834 17.5239H146.769ZM156.604 8.01416V9.35889H152.007V8.01416H156.604ZM158.036 8.01416V17.5239H156.41V8.01416H158.036ZM151.611 8.01416H153.246L153 12.6021C152.959 13.311 152.892 13.938 152.798 14.4829C152.71 15.022 152.587 15.4849 152.429 15.8716C152.276 16.2583 152.083 16.5747 151.849 16.8208C151.62 17.061 151.345 17.2397 151.022 17.3569C150.7 17.4683 150.328 17.5239 149.906 17.5239H149.396V16.0913L149.748 16.0649C150 16.0474 150.214 15.9888 150.39 15.8892C150.571 15.7896 150.724 15.6431 150.847 15.4497C150.97 15.2505 151.069 14.9956 151.146 14.6851C151.228 14.3745 151.289 14.0054 151.33 13.5776C151.377 13.1499 151.412 12.6519 151.436 12.0835L151.611 8.01416ZM162.422 8.01416V17.5239H160.787V8.01416H162.422ZM160.664 5.4917C160.664 5.22803 160.743 5.00537 160.901 4.82373C161.065 4.64209 161.306 4.55127 161.622 4.55127C161.933 4.55127 162.17 4.64209 162.334 4.82373C162.504 5.00537 162.589 5.22803 162.589 5.4917C162.589 5.74365 162.504 5.96045 162.334 6.14209C162.17 6.31787 161.933 6.40576 161.622 6.40576C161.306 6.40576 161.065 6.31787 160.901 6.14209C160.743 5.96045 160.664 5.74365 160.664 5.4917ZM171.483 12.1362V13.4546H166.456V12.1362H171.483ZM166.799 8.01416V17.5239H165.173V8.01416H166.799ZM172.802 8.01416V17.5239H171.167V8.01416H172.802ZM177.188 8.01416V17.5239H175.553V8.01416H177.188ZM175.43 5.4917C175.43 5.22803 175.509 5.00537 175.667 4.82373C175.831 4.64209 176.071 4.55127 176.388 4.55127C176.698 4.55127 176.936 4.64209 177.1 4.82373C177.27 5.00537 177.354 5.22803 177.354 5.4917C177.354 5.74365 177.27 5.96045 177.1 6.14209C176.936 6.31787 176.698 6.40576 176.388 6.40576C176.071 6.40576 175.831 6.31787 175.667 6.14209C175.509 5.96045 175.43 5.74365 175.43 5.4917ZM181.564 8.01416V17.5239H179.938V8.01416H181.564ZM187.805 8.01416L183.296 13.4634H181.02L180.773 12.0396H182.637L185.827 8.01416H187.805ZM186.056 17.5239L182.558 13.2173L183.604 12.0396L188.121 17.5239H186.056ZM195.144 15.8979V11.0024C195.144 10.6274 195.067 10.3022 194.915 10.0269C194.769 9.74561 194.546 9.52881 194.247 9.37646C193.948 9.22412 193.579 9.14795 193.14 9.14795C192.729 9.14795 192.369 9.21826 192.059 9.35889C191.754 9.49951 191.514 9.68408 191.338 9.9126C191.168 10.1411 191.083 10.3872 191.083 10.6509H189.457C189.457 10.311 189.545 9.97412 189.721 9.64014C189.896 9.30615 190.148 9.00439 190.477 8.73486C190.811 8.45947 191.209 8.24268 191.672 8.08447C192.141 7.92041 192.662 7.83838 193.236 7.83838C193.928 7.83838 194.537 7.95557 195.064 8.18994C195.598 8.42432 196.014 8.77881 196.312 9.25342C196.617 9.72217 196.77 10.311 196.77 11.02V15.4497C196.77 15.7661 196.796 16.103 196.849 16.4604C196.907 16.8179 196.992 17.1255 197.104 17.3833V17.5239H195.407C195.325 17.3364 195.261 17.0874 195.214 16.7769C195.167 16.4604 195.144 16.1675 195.144 15.8979ZM195.425 11.7583L195.442 12.9009H193.799C193.336 12.9009 192.923 12.939 192.56 13.0151C192.196 13.0854 191.892 13.1938 191.646 13.3403C191.399 13.4868 191.212 13.6714 191.083 13.894C190.954 14.1108 190.89 14.3657 190.89 14.6587C190.89 14.9575 190.957 15.23 191.092 15.4761C191.227 15.7222 191.429 15.9185 191.698 16.0649C191.974 16.2056 192.311 16.2759 192.709 16.2759C193.207 16.2759 193.646 16.1704 194.027 15.9595C194.408 15.7485 194.71 15.4907 194.933 15.186C195.161 14.8813 195.284 14.5854 195.302 14.2983L195.996 15.0806C195.955 15.3267 195.844 15.5991 195.662 15.8979C195.48 16.1968 195.237 16.4839 194.933 16.7593C194.634 17.0288 194.276 17.2544 193.86 17.436C193.45 17.6118 192.987 17.6997 192.472 17.6997C191.827 17.6997 191.262 17.5737 190.775 17.3218C190.295 17.0698 189.92 16.7329 189.65 16.311C189.387 15.8833 189.255 15.4058 189.255 14.8784C189.255 14.3687 189.354 13.9204 189.554 13.5337C189.753 13.1411 190.04 12.8159 190.415 12.5581C190.79 12.2944 191.241 12.0952 191.769 11.9604C192.296 11.8257 192.885 11.7583 193.535 11.7583H195.425Z" fill="#011C44"/>
<path d="M9.8 53.6639H46.62C55.3 53.6639 61.9733 54.3173 66.64 55.6239C71.4 56.8373 74.76 58.8439 76.72 61.6439C78.68 64.3506 79.66 68.1773 79.66 73.1239V84.3239C79.66 86.8439 78.6333 89.2239 76.58 91.4639C74.62 93.7039 72.2867 95.2439 69.58 96.0839V96.7839C73.1267 97.1573 76.3467 98.6973 79.24 101.404C82.2267 104.017 83.72 106.957 83.72 110.224V124.224C83.72 131.597 80.78 136.824 74.9 139.904C69.02 142.984 59.92 144.524 47.6 144.524H9.8V53.6639ZM46.62 90.6239C50.0733 90.6239 52.64 90.3439 54.32 89.7839C56 89.2239 57.12 88.3373 57.68 87.1239C58.3333 85.8173 58.66 83.9506 58.66 81.5239V77.0439C58.66 74.8973 58.38 73.3106 57.82 72.2839C57.26 71.1639 56.0933 70.3706 54.32 69.9039C52.64 69.4373 49.9333 69.2039 46.2 69.2039H31.64V90.6239H46.62ZM47.18 128.984C52.5 128.984 56.28 128.377 58.52 127.164C60.76 125.951 61.88 123.991 61.88 121.284V114.004C61.88 110.644 60.9933 108.264 59.22 106.864C57.54 105.464 54.5067 104.764 50.12 104.764H31.64V128.984H47.18ZM131.847 145.924C107.861 145.924 95.8672 138.597 95.8672 123.944V99.5839C95.8672 91.0906 98.5739 84.9306 103.987 81.1039C109.494 77.2773 117.941 75.3639 129.327 75.3639C140.061 75.3639 147.901 77.2306 152.847 80.9639C157.887 84.6039 160.407 90.8106 160.407 99.5839V116.104H116.447V122.264C116.447 126.184 117.847 128.984 120.647 130.664C123.447 132.344 128.487 133.184 135.767 133.184C142.487 133.184 150.047 132.204 158.447 130.244V143.264C150.141 145.037 141.274 145.924 131.847 145.924ZM140.947 104.484V94.6839C140.947 92.4439 140.014 90.7639 138.147 89.6439C136.374 88.5239 133.341 87.9639 129.047 87.9639C124.101 87.9639 120.787 88.5239 119.107 89.6439C117.334 90.8573 116.447 92.5373 116.447 94.6839V104.484H140.947ZM195.21 145.924C188.864 145.924 184.104 145.364 180.93 144.244C177.85 143.031 175.657 140.931 174.35 137.944C173.137 134.864 172.53 130.291 172.53 124.224C172.53 118.811 173.184 114.564 174.49 111.484C175.89 108.404 178.084 106.211 181.07 104.904C184.15 103.504 188.35 102.804 193.67 102.804H216.63V98.1839C216.63 95.2906 216.21 93.1439 215.37 91.7439C214.624 90.3439 213.177 89.3639 211.03 88.8039C208.977 88.2439 205.85 87.9639 201.65 87.9639C195.864 87.9639 187.93 88.5239 177.85 89.6439V76.7639C185.224 75.8306 193.857 75.3639 203.75 75.3639C212.43 75.3639 219.104 76.0173 223.77 77.3239C228.53 78.6306 231.937 80.8706 233.99 84.0439C236.044 87.2173 237.07 91.8373 237.07 97.9039V144.524H217.05V138.364C215.464 141.071 213.317 142.984 210.61 144.104C207.904 145.317 202.77 145.924 195.21 145.924ZM203.19 133.184C207.297 133.184 210.237 133.044 212.01 132.764C213.317 132.577 214.204 132.297 214.67 131.924C215.23 131.551 215.697 130.944 216.07 130.104C216.444 129.451 216.63 128.471 216.63 127.164V114.004H202.63C199.457 114.004 197.217 114.237 195.91 114.704C194.604 115.077 193.717 115.917 193.25 117.224C192.784 118.437 192.55 120.631 192.55 123.804C192.55 126.884 192.784 129.031 193.25 130.244C193.717 131.457 194.604 132.251 195.91 132.624C197.31 132.997 199.737 133.184 203.19 133.184ZM278.574 145.924C269.894 145.924 263.78 144.384 260.234 141.304C256.78 138.131 255.054 133.184 255.054 126.464V76.7639H275.494V123.664C275.494 126.277 275.727 128.237 276.194 129.544C276.754 130.851 277.78 131.784 279.274 132.344C280.86 132.904 283.24 133.184 286.414 133.184C290.427 133.184 293.367 132.951 295.234 132.484C297.1 131.924 298.36 130.991 299.014 129.684C299.667 128.377 299.994 126.371 299.994 123.664V76.7639H320.434V144.524H300.274V136.264C298.78 142.704 291.547 145.924 278.574 145.924ZM372.195 145.924C368.742 145.924 365.849 145.784 363.515 145.504C361.182 145.224 358.849 144.664 356.515 143.824C353.902 142.984 351.755 141.817 350.075 140.324C348.489 138.831 347.182 136.777 346.155 134.164C345.035 131.457 344.475 128.331 344.475 124.784V89.3639H330.755V76.7639H344.475V57.1639H364.915V76.7639H383.535V89.3639H364.915V121.284C364.915 124.551 365.195 127.024 365.755 128.704C366.315 130.291 367.389 131.457 368.975 132.204C370.562 132.857 372.989 133.184 376.255 133.184C377.562 133.184 379.989 132.951 383.535 132.484V145.224C379.149 145.691 375.369 145.924 372.195 145.924ZM414.507 143.964L387.487 76.7639H409.747L425.007 124.644L438.867 76.7639H460.007L422.907 173.644H402.187L414.507 143.964ZM5.6 245.224L52.92 183.204H7V167.664H79.8V180.824L32.48 242.844H80.64V258.524H5.6V245.224ZM127.163 259.924C122.963 259.924 119.509 259.784 116.803 259.504C114.096 259.224 111.203 258.664 108.123 257.824C104.763 256.891 102.056 255.584 100.003 253.904C97.9493 252.131 96.2227 249.657 94.8227 246.484C93.4227 243.404 92.7227 239.671 92.7227 235.284V215.264C92.7227 210.784 93.4227 206.864 94.8227 203.504C96.2227 200.144 98.0427 197.531 100.283 195.664C102.243 194.077 104.809 192.771 107.983 191.744C111.249 190.624 114.423 189.924 117.503 189.644C121.049 189.457 124.269 189.364 127.163 189.364C131.456 189.364 134.863 189.504 137.383 189.784C139.996 189.971 142.843 190.531 145.923 191.464C149.283 192.491 151.989 193.891 154.043 195.664C156.189 197.437 158.009 199.957 159.503 203.224C160.903 206.584 161.603 210.597 161.603 215.264V235.284C161.603 239.484 160.903 243.171 159.503 246.344C158.196 249.517 156.469 251.991 154.323 253.764C152.456 255.351 149.889 256.657 146.623 257.684C143.449 258.617 140.323 259.224 137.243 259.504C134.443 259.784 131.083 259.924 127.163 259.924ZM127.163 247.184C130.989 247.184 133.883 246.904 135.843 246.344C137.803 245.691 139.156 244.711 139.903 243.404C140.743 242.097 141.163 240.184 141.163 237.664V212.044C141.163 208.311 140.183 205.697 138.223 204.204C136.263 202.711 132.576 201.964 127.163 201.964C121.749 201.964 118.063 202.711 116.103 204.204C114.143 205.697 113.163 208.311 113.163 212.044V237.664C113.163 240.184 113.536 242.097 114.283 243.404C115.123 244.711 116.523 245.691 118.483 246.344C120.443 246.904 123.336 247.184 127.163 247.184ZM177.534 190.764H197.694V199.024C199.281 192.584 206.514 189.364 219.394 189.364C228.074 189.364 234.141 190.951 237.594 194.124C241.141 197.204 242.914 202.104 242.914 208.824V258.524H222.474V211.484C222.474 208.871 222.194 206.911 221.634 205.604C221.168 204.297 220.141 203.364 218.554 202.804C217.061 202.244 214.728 201.964 211.554 201.964C207.541 201.964 204.601 202.244 202.734 202.804C200.868 203.271 199.608 204.157 198.954 205.464C198.301 206.771 197.974 208.777 197.974 211.484V258.524H177.534V190.764ZM294.816 259.924C270.829 259.924 258.836 252.597 258.836 237.944V213.584C258.836 205.091 261.543 198.931 266.956 195.104C272.463 191.277 280.909 189.364 292.296 189.364C303.029 189.364 310.869 191.231 315.816 194.964C320.856 198.604 323.376 204.811 323.376 213.584V230.104H279.416V236.264C279.416 240.184 280.816 242.984 283.616 244.664C286.416 246.344 291.456 247.184 298.736 247.184C305.456 247.184 313.016 246.204 321.416 244.244V257.264C313.109 259.037 304.243 259.924 294.816 259.924ZM303.916 218.484V208.684C303.916 206.444 302.983 204.764 301.116 203.644C299.343 202.524 296.309 201.964 292.016 201.964C287.069 201.964 283.756 202.524 282.076 203.644C280.303 204.857 279.416 206.537 279.416 208.684V218.484H303.916Z" fill="#2B7FFF"/>
</svg>
